<svg xmlns="http://www.w3.org/2000/svg" xmlns:xlink="http://www.w3.org/1999/xlink" width="32px" height="32px"
  viewBox="0 0 32 32" version="1.1" fill="white">
  <g id="surface1">
    <path
      d="M 0 16 C 0 12.378906 2.429688 9.207031 5.929688 8.269531 C 9.429688 7.332031 13.121094 8.863281 14.929688 12 L 28 12 C 28.265625 12 28.519531 12.105469 28.707031 12.292969 L 31.707031 15.292969 C 31.894531 15.480469 32 15.734375 32 16 C 32 16.265625 31.894531 16.519531 31.707031 16.707031 L 28.707031 19.707031 C 28.519531 19.894531 28.265625 20 28 20 C 27.734375 20 27.480469 19.894531 27.292969 19.707031 L 26 18.414062 L 24.707031 19.707031 C 24.519531 19.894531 24.265625 20 24 20 C 23.734375 20 23.480469 19.894531 23.292969 19.707031 L 22 18.414062 L 20.707031 19.707031 C 20.519531 19.894531 20.265625 20 20 20 C 19.734375 20 19.480469 19.894531 19.292969 19.707031 L 18 18.414062 L 16.707031 19.707031 C 16.519531 19.894531 16.265625 20 16 20 L 14.929688 20 C 13.121094 23.136719 9.429688 24.667969 5.929688 23.730469 C 2.429688 22.792969 0 19.621094 0 16 Z M 8 10 C 5.027344 10 2.503906 12.179688 2.066406 15.121094 C 1.632812 18.058594 3.414062 20.875 6.257812 21.742188 C 9.101562 22.605469 12.152344 21.257812 13.425781 18.570312 C 13.589844 18.222656 13.941406 18 14.324219 18 L 15.585938 18 L 17.292969 16.292969 C 17.480469 16.105469 17.734375 16 18 16 C 18.265625 16 18.519531 16.105469 18.707031 16.292969 L 20 17.585938 L 21.292969 16.292969 C 21.480469 16.105469 21.734375 16 22 16 C 22.265625 16 22.519531 16.105469 22.707031 16.292969 L 24 17.585938 L 25.292969 16.292969 C 25.480469 16.105469 25.734375 16 26 16 C 26.265625 16 26.519531 16.105469 26.707031 16.292969 L 28 17.585938 L 29.585938 16 L 27.585938 14 L 14.324219 14 C 13.941406 14 13.589844 13.777344 13.425781 13.429688 C 12.429688 11.335938 10.320312 10 8 10 Z M 8 10 " />
    <path
      d="M 8 16 C 8 17.105469 7.105469 18 6 18 C 4.894531 18 4 17.105469 4 16 C 4 14.894531 4.894531 14 6 14 C 7.105469 14 8 14.894531 8 16 Z M 8 16 " />
  </g>
</svg>