<svg xmlns="http://www.w3.org/2000/svg" xmlns:xlink="http://www.w3.org/1999/xlink" width="48px" height="48px"
  viewBox="0 0 48 48" version="1.1" fill="white">
  <g id="surface1">
    <path
      d="M 0 24 C -0.00390625 18.566406 3.644531 13.808594 8.894531 12.402344 C 14.140625 11 19.679688 13.292969 22.394531 18 L 42 18 C 42.398438 18 42.78125 18.15625 43.0625 18.4375 L 47.5625 22.9375 C 47.84375 23.21875 48.003906 23.601562 48.003906 24 C 48.003906 24.398438 47.84375 24.78125 47.5625 25.0625 L 43.0625 29.5625 C 42.78125 29.84375 42.398438 30.003906 42 30.003906 C 41.601562 30.003906 41.21875 29.84375 40.9375 29.5625 L 39 27.621094 L 37.0625 29.5625 C 36.78125 29.84375 36.398438 30.003906 36 30.003906 C 35.601562 30.003906 35.21875 29.84375 34.9375 29.5625 L 33 27.621094 L 31.0625 29.5625 C 30.78125 29.84375 30.398438 30.003906 30 30.003906 C 29.601562 30.003906 29.21875 29.84375 28.9375 29.5625 L 27 27.621094 L 25.0625 29.5625 C 24.78125 29.84375 24.398438 30 24 30 L 22.394531 30 C 19.679688 34.707031 14.140625 37 8.894531 35.597656 C 3.644531 34.191406 -0.00390625 29.433594 0 24 Z M 12 15 C 7.539062 15 3.753906 18.269531 3.101562 22.679688 C 2.445312 27.089844 5.121094 31.316406 9.386719 32.609375 C 13.652344 33.90625 18.226562 31.882812 20.136719 27.855469 C 20.382812 27.332031 20.910156 27 21.488281 27 L 23.378906 27 L 25.9375 24.4375 C 26.21875 24.15625 26.601562 23.996094 27 23.996094 C 27.398438 23.996094 27.78125 24.15625 28.0625 24.4375 L 30 26.378906 L 31.9375 24.4375 C 32.21875 24.15625 32.601562 23.996094 33 23.996094 C 33.398438 23.996094 33.78125 24.15625 34.0625 24.4375 L 36 26.378906 L 37.9375 24.4375 C 38.21875 24.15625 38.601562 23.996094 39 23.996094 C 39.398438 23.996094 39.78125 24.15625 40.0625 24.4375 L 42 26.378906 L 44.378906 24 L 41.378906 21 L 21.488281 21 C 20.910156 21 20.382812 20.667969 20.136719 20.144531 C 18.644531 17 15.476562 15 12 15 Z M 12 15 " />
    <path
      d="M 12 24 C 12 25.65625 10.65625 27 9 27 C 7.34375 27 6 25.65625 6 24 C 6 22.34375 7.34375 21 9 21 C 10.65625 21 12 22.34375 12 24 Z M 12 24 " />
  </g>
</svg>